<svg width="36" height="35" viewBox="0 0 36 35" fill="none" xmlns="http://www.w3.org/2000/svg">
<path d="M8.1723 34.4116V11.1942H0.455299V34.4116H8.1723ZM4.3148 8.0223C7.00585 8.0223 8.6809 6.23947 8.6809 4.01153C8.63076 1.73335 7.00595 0 4.36586 0C1.72619 0 0 1.73338 0 4.01153C0 6.23958 1.67464 8.0223 4.26442 8.0223H4.31456H4.3148ZM12.4436 34.4116H20.1606V21.4459C20.1606 20.7519 20.2108 20.0588 20.4146 19.5627C20.9724 18.1763 22.2422 16.7404 24.3739 16.7404C27.1664 16.7404 28.2836 18.8695 28.2836 21.9906V34.4114H36.0001V21.0988C36.0001 13.9673 32.1929 10.6491 27.1156 10.6491C22.9526 10.6491 21.1247 12.9761 20.1093 14.561H20.1608V11.1937H12.4438C12.5451 13.3723 12.4438 34.4111 12.4438 34.4111L12.4436 34.4116Z" fill="white"/>
</svg>
