<svg width="36" height="36" viewBox="0 0 36 36" fill="none" xmlns="http://www.w3.org/2000/svg">
<path d="M34.5 4.50044C33.0636 5.51365 31.4732 6.2886 29.79 6.79544C28.8866 5.7567 27.686 5.02047 26.3506 4.68632C25.0151 4.35218 23.6092 4.43623 22.3231 4.92712C21.037 5.418 19.9327 6.29204 19.1595 7.43101C18.3863 8.56998 17.9815 9.91894 18 11.2954V12.7954C15.364 12.8638 12.7519 12.2792 10.3965 11.0936C8.04112 9.90805 6.01548 8.15839 4.5 6.00044C4.5 6.00044 -1.5 19.5004 12 25.5004C8.91079 27.5974 5.23074 28.6488 1.5 28.5004C15 36.0004 31.5 28.5004 31.5 11.2504C31.4986 10.8326 31.4584 10.4158 31.38 10.0054C32.9109 8.49567 33.9912 6.5895 34.5 4.50044V4.50044Z" stroke="white" stroke-width="2" stroke-linecap="round" stroke-linejoin="round"/>
</svg>
