<svg width="38" height="46" viewBox="0 0 38 46" fill="none" xmlns="http://www.w3.org/2000/svg">
<path d="M19 25.1426C22.4518 25.1426 25.25 22.3444 25.25 18.8926C25.25 15.4408 22.4518 12.6426 19 12.6426C15.5482 12.6426 12.75 15.4408 12.75 18.8926C12.75 22.3444 15.5482 25.1426 19 25.1426Z" stroke="white" stroke-width="3" stroke-linecap="round" stroke-linejoin="round"/>
<path d="M19.0006 2.22656C14.5804 2.22656 10.3411 3.98251 7.21554 7.10812C4.08993 10.2337 2.33398 14.473 2.33398 18.8932C2.33398 22.8349 3.17148 25.4141 5.45898 28.2682L19.0006 43.8932L32.5423 28.2682C34.8298 25.4141 35.6673 22.8349 35.6673 18.8932C35.6673 14.473 33.9114 10.2337 30.7858 7.10812C27.6602 3.98251 23.4209 2.22656 19.0006 2.22656V2.22656Z" stroke="white" stroke-width="3" stroke-linecap="round" stroke-linejoin="round"/>
</svg>
