<svg width="42" height="42" viewBox="0 0 42 42" fill="none" xmlns="http://www.w3.org/2000/svg">
<path d="M36.6243 41.373H36.3586C5.65551 39.6074 1.29613 13.7012 0.686758 5.79492C0.637656 5.1802 0.710334 4.56184 0.900625 3.97525C1.09092 3.38867 1.39508 2.8454 1.79569 2.37657C2.1963 1.90773 2.68549 1.52256 3.23521 1.24311C3.78494 0.963658 4.3844 0.795425 4.99926 0.748048H13.6086C14.2345 0.747442 14.8461 0.934782 15.3643 1.2858C15.8825 1.63682 16.2833 2.13534 16.5149 2.7168L18.8899 8.56055C19.1186 9.12859 19.1753 9.7513 19.0531 10.3513C18.9309 10.9513 18.635 11.5022 18.2024 11.9355L14.8743 15.2949C15.3941 18.2492 16.8089 20.9725 18.9272 23.0964C21.0455 25.2203 23.7651 26.6423 26.718 27.1699L30.1086 23.8105C30.5485 23.3827 31.1045 23.0938 31.7075 22.9798C32.3105 22.8659 32.9336 22.932 33.4993 23.1699L39.3899 25.5293C39.9626 25.7682 40.4512 26.1721 40.7934 26.6897C41.1357 27.2073 41.3162 27.8151 41.3118 28.4355V36.6855C41.3118 37.9287 40.8179 39.121 39.9388 40.0001C39.0597 40.8792 37.8675 41.373 36.6243 41.373ZM5.37426 3.87305C4.95986 3.87305 4.56243 4.03767 4.2694 4.33069C3.97638 4.62372 3.81176 5.02115 3.81176 5.43555V5.56055C4.53051 14.8105 9.13988 36.6855 36.5305 38.248C36.7358 38.2607 36.9415 38.2328 37.136 38.1658C37.3304 38.0988 37.5097 37.994 37.6636 37.8576C37.8175 37.7211 37.9429 37.5556 38.0327 37.3706C38.1224 37.1856 38.1748 36.9846 38.1868 36.7793V28.4355L32.2961 26.0762L27.8118 30.5293L27.0618 30.4355C13.468 28.7324 11.6243 15.1387 11.6243 14.998L11.5305 14.248L15.968 9.76367L13.6243 3.87305H5.37426Z" fill="white"/>
</svg>
