<svg width="55" height="43" viewBox="0 0 55 43" fill="none" xmlns="http://www.w3.org/2000/svg">
<path d="M1.86718 23.2266H6.78125C7.3125 23.2266 7.84374 23.7578 7.84374 24.2891V31.7266H22.8516L26.3047 24.5547L13.8203 20.1719C13.5547 20.0391 13.2891 19.9063 13.2891 19.6406C13.1562 19.375 13.1562 19.1094 13.2891 18.8438L15.5469 11.8047L19.1328 1.57812C19.2656 1.3125 19.3984 1.04688 19.6641 1.04688C19.9297 0.914062 20.1953 0.914062 20.4609 1.04688L52.8672 12.2031C53.2656 12.3359 53.5312 12.6016 53.5312 13C53.5312 13.3984 53.3984 13.7969 53 14.0625L47.6875 17.5156L43.5703 29.4688C43.4375 29.7344 43.3047 30 43.0391 30C42.9062 30.1328 42.7734 30.1328 42.6406 30.1328C42.5078 30.1328 42.375 30.1328 42.2422 30.1328L28.2969 25.2188L24.4453 33.1875C24.3125 33.5859 23.9141 33.7188 23.5156 33.7188H7.84374V41.1563C7.84374 41.6875 7.3125 42.2188 6.78125 42.2188H1.86718C1.33593 42.2188 0.804688 41.6875 0.804688 41.1563V24.2891C0.804688 23.7578 1.20312 23.2266 1.86718 23.2266ZM20.7266 3.17188L17.8047 11.5391L40.7812 19.6406L46.0937 16.1875L50.0781 13.5312L20.7266 3.17188ZM44.8984 19.375L41.5781 21.6328C41.4453 21.7656 41.3125 21.7656 41.1797 21.7656C41.1797 21.7656 41.1797 21.7656 41.0469 21.7656C41.0469 21.7656 41.0469 21.7656 40.9141 21.7656C40.7812 21.7656 40.6484 21.7656 40.5156 21.7656L17.1406 13.5312L15.4141 18.5781L41.8437 27.875L44.8984 19.375ZM2.79688 40.0938H5.71875V25.3516H2.79688V40.0938Z" fill="#E40000"/>
<path d="M47.6869 20.3047C47.8197 20.0391 47.9525 19.7734 48.2181 19.7734C48.4837 19.6406 48.7494 19.6406 49.015 19.7734L53.5306 21.3672C54.0619 21.5 54.3275 22.1641 54.1947 22.6953L51.2728 30.9297C51.14 31.3281 50.7415 31.5937 50.3431 31.5937C50.2103 31.5937 50.0775 31.5937 49.9447 31.5937L45.429 30C45.1634 29.8672 44.8978 29.7344 44.8978 29.4688C44.765 29.2031 44.765 28.9375 44.8978 28.6719L47.6869 20.3047ZM49.679 29.2031L51.804 22.9609L49.2806 22.0313L47.1556 28.2734L49.679 29.2031Z" fill="#E40000"/>
</svg>
