<svg width="48" height="50" viewBox="0 0 48 50" fill="none" xmlns="http://www.w3.org/2000/svg">
<path d="M23.9604 6.12066C23.4279 6.12066 22.9971 5.69058 22.9971 5.15738V0.96328C22.9971 0.43125 23.4279 0 23.9604 0C24.4932 0 24.9236 0.43125 24.9236 0.96328V5.15738C24.9236 5.68941 24.4916 6.12066 23.9604 6.12066Z" fill="#E40000"/>
<path d="M35.5364 10.4091C35.7251 10.597 35.9716 10.6907 36.2177 10.6907C36.4642 10.6907 36.7118 10.597 36.8989 10.4091L39.8645 7.44267C40.2403 7.06767 40.2403 6.45673 39.8645 6.08057C39.4887 5.70557 38.8778 5.70557 38.502 6.08057L35.5364 9.04577C35.161 9.42194 35.161 10.0325 35.5364 10.4091Z" fill="#E40000"/>
<path d="M46.1017 24.0623H41.9076C41.3748 24.0623 40.9443 23.6314 40.9443 23.099C40.9443 22.567 41.3748 22.1357 41.9076 22.1357H46.1017C46.6345 22.1357 47.065 22.567 47.065 23.099C47.065 23.6314 46.633 24.0623 46.1017 24.0623Z" fill="#E40000"/>
<path d="M37.8966 39.4339C38.0852 39.6221 38.3313 39.7155 38.5778 39.7155C38.8243 39.7155 39.0719 39.6221 39.2591 39.4339C39.6348 39.0577 39.6348 38.4471 39.2591 38.0706L36.2935 35.1058C35.9177 34.7304 35.3067 34.7304 34.931 35.1058C34.5556 35.4819 34.5556 36.0925 34.931 36.4679L37.8966 39.4339Z" fill="#E40000"/>
<path d="M11.4517 10.6912C11.2056 10.6912 10.9592 10.5974 10.7709 10.4096L7.80527 7.44315C7.42949 7.06815 7.42949 6.45721 7.80527 6.08105C8.18105 5.70605 8.79199 5.70605 9.16777 6.08105L12.133 9.04625C12.5088 9.42242 12.5088 10.033 12.133 10.4096C11.9447 10.5963 11.6982 10.6912 11.4517 10.6912H11.4517Z" fill="#E40000"/>
<path d="M0.96328 23.2061H5.15778C5.6902 23.2061 6.12106 22.7752 6.12106 22.2428C6.12106 21.7107 5.6902 21.2795 5.15778 21.2795H0.96328C0.43086 21.2795 0 21.7107 0 22.2428C0 22.7752 0.43086 23.2061 0.96328 23.2061Z" fill="#E40000"/>
<path d="M7.88105 39.716C7.63457 39.716 7.38847 39.6227 7.1998 39.4344C6.82402 39.0582 6.82402 38.4477 7.1998 38.0711L10.1654 35.1063C10.5408 34.7309 11.1521 34.7309 11.5275 35.1063C11.9033 35.4825 11.9033 36.093 11.5275 36.4684L8.5619 39.4344C8.37362 39.6227 8.12713 39.716 7.88104 39.716H7.88105Z" fill="#E40000"/>
<path d="M22.7388 33.0039C22.4635 33.0039 22.2021 32.8867 22.0189 32.6805L16.9095 26.9309C16.556 26.5332 16.5915 25.9247 16.9892 25.5707C17.3873 25.2172 17.9954 25.2535 18.349 25.6515L22.7345 30.587L31.6931 20.408C32.0443 20.0092 32.6537 19.9705 33.0529 20.3209C33.4517 20.6725 33.4904 21.2823 33.1396 21.6811L23.4611 32.6771C23.2783 32.8853 23.017 33.0037 22.74 33.0049L22.7388 33.0039Z" fill="#E40000"/>
<path fill-rule="evenodd" clip-rule="evenodd" d="M31.1045 36.6378C31.0448 36.8097 30.9409 36.9538 30.81 37.0624C30.8463 37.5527 30.5057 37.9999 30.012 38.0839L29.8084 38.1183V39.8351C30.2874 39.8136 30.7166 40.1511 30.7991 40.6351C30.8885 41.1597 30.5362 41.6574 30.012 41.7464L29.8084 41.7808V43.498C30.2873 43.4765 30.7166 43.814 30.7991 44.2976C30.8885 44.8226 30.5362 45.3203 30.0119 45.4093L28.7017 45.6343C28.7178 45.7234 28.7209 45.8159 28.7103 45.9105C28.4611 48.1273 26.1326 49.7777 23.39 49.7777L23.1353 49.7734C23.0252 49.7691 22.9146 49.7613 22.8041 49.7527C21.0178 49.5999 19.4201 48.7679 18.5295 47.5254L18.5053 47.4886C18.4842 47.4562 18.4654 47.4242 18.449 47.391L17.3779 47.5746C17.3229 47.5824 17.2678 47.5886 17.2139 47.5886C16.7529 47.5886 16.3455 47.2566 16.2658 46.7879C16.1764 46.2629 16.5287 45.7652 17.0529 45.675L17.2568 45.6406V43.9246L17.2139 43.9258C16.7529 43.9258 16.3455 43.5937 16.2658 43.125C16.1764 42.6004 16.5287 42.1023 17.0529 42.0121L17.2568 41.9777V40.2621L17.2139 40.2629C16.7529 40.2629 16.3455 39.9309 16.2658 39.4621C16.2252 39.2223 16.2764 38.9891 16.3939 38.7965C16.1154 35.566 14.8857 34.6125 13.3431 33.418C11.3009 31.8352 8.98494 30.0399 8.55014 23.414C8.32709 20.0253 9.56034 16.7132 12.0204 14.0843C14.9255 10.9827 19.12 9.20459 23.5304 9.20459C27.9656 9.20459 32.1796 10.9968 35.0884 14.1198C37.5353 16.7452 38.7501 20.0479 38.5107 23.4182C38.0545 29.8463 35.8193 31.6311 33.8459 33.2061L33.8424 33.2092H33.8385C32.6944 34.1221 31.7057 34.9112 31.1045 36.6377L31.1045 36.6378ZM14.5225 31.8944C16.144 33.1491 17.8155 34.4456 18.2616 38.1417L29.2336 36.2624C29.2387 36.1765 29.2559 36.0894 29.2856 36.0046C30.0696 33.7511 31.3751 32.7105 32.6391 31.703H32.6407L32.6434 31.6999C34.4696 30.244 36.1938 28.8702 36.5899 23.2819C36.7911 20.451 35.7575 17.6635 33.6797 15.4327C31.1695 12.7386 27.377 11.1311 23.5307 11.1311C19.708 11.1311 15.9319 12.7276 13.4277 15.4014C11.3343 17.6366 10.2859 20.4362 10.473 23.2881C10.8515 29.0463 12.6339 30.4299 14.521 31.8943L14.5225 31.8944ZM27.8815 43.8204V42.1122L19.1831 43.6024V45.3106L27.8815 43.8204ZM27.8815 40.1579V38.4493L19.1831 39.9395V41.6477L27.8815 40.1579ZM20.6893 47.0071C21.2815 47.4607 22.0834 47.7587 22.9674 47.8341C24.7572 47.9856 26.3994 47.1501 26.7408 45.9696L20.6893 47.0071Z" fill="#E40000"/>
</svg>
