<svg width="249" height="171" viewBox="0 0 249 171" fill="none" xmlns="http://www.w3.org/2000/svg">
<circle cx="246.629" cy="168.791" r="2" transform="rotate(-180 246.629 168.791)" fill="white"/>
<circle cx="116.228" cy="168.791" r="2" transform="rotate(-180 116.228 168.791)" fill="white"/>
<circle cx="246.629" cy="77.8145" r="2" transform="rotate(-180 246.629 77.8145)" fill="white"/>
<circle cx="116.228" cy="77.8145" r="2" transform="rotate(-180 116.228 77.8145)" fill="white"/>
<circle cx="230.452" cy="168.791" r="2" transform="rotate(-180 230.452 168.791)" fill="white"/>
<circle cx="100.055" cy="168.791" r="2" transform="rotate(-180 100.055 168.791)" fill="white"/>
<circle cx="230.452" cy="77.8145" r="2" transform="rotate(-180 230.452 77.8145)" fill="white"/>
<circle cx="100.055" cy="77.8145" r="2" transform="rotate(-180 100.055 77.8145)" fill="white"/>
<circle cx="214.281" cy="168.791" r="2" transform="rotate(-180 214.281 168.791)" fill="white"/>
<circle cx="83.8838" cy="168.791" r="2" transform="rotate(-180 83.8838 168.791)" fill="white"/>
<circle cx="214.281" cy="77.8145" r="2" transform="rotate(-180 214.281 77.8145)" fill="white"/>
<circle cx="83.8838" cy="77.8145" r="2" transform="rotate(-180 83.8838 77.8145)" fill="white"/>
<circle cx="198.109" cy="168.791" r="2" transform="rotate(-180 198.109 168.791)" fill="white"/>
<circle cx="67.707" cy="168.791" r="2" transform="rotate(-180 67.707 168.791)" fill="white"/>
<circle cx="198.109" cy="77.8145" r="2" transform="rotate(-180 198.109 77.8145)" fill="white"/>
<circle cx="67.707" cy="77.8145" r="2" transform="rotate(-180 67.707 77.8145)" fill="white"/>
<circle cx="180.923" cy="168.791" r="2" transform="rotate(-180 180.923 168.791)" fill="white"/>
<circle cx="50.5254" cy="168.791" r="2" transform="rotate(-180 50.5254 168.791)" fill="white"/>
<circle cx="180.923" cy="77.8145" r="2" transform="rotate(-180 180.923 77.8145)" fill="white"/>
<circle cx="50.5254" cy="77.8145" r="2" transform="rotate(-180 50.5254 77.8145)" fill="white"/>
<circle cx="164.754" cy="168.791" r="2" transform="rotate(-180 164.754 168.791)" fill="white"/>
<circle cx="34.3496" cy="168.791" r="2" transform="rotate(-180 34.3496 168.791)" fill="white"/>
<circle cx="164.754" cy="77.8145" r="2" transform="rotate(-180 164.754 77.8145)" fill="white"/>
<circle cx="34.3496" cy="77.8145" r="2" transform="rotate(-180 34.3496 77.8145)" fill="white"/>
<circle cx="148.577" cy="168.791" r="2" transform="rotate(-180 148.577 168.791)" fill="white"/>
<circle cx="18.1748" cy="168.791" r="2" transform="rotate(-180 18.1748 168.791)" fill="white"/>
<circle cx="148.577" cy="77.8145" r="2" transform="rotate(-180 148.577 77.8145)" fill="white"/>
<circle cx="18.1748" cy="77.8145" r="2" transform="rotate(-180 18.1748 77.8145)" fill="white"/>
<circle cx="132.401" cy="168.791" r="2" transform="rotate(-180 132.401 168.791)" fill="white"/>
<circle cx="2" cy="168.791" r="2" transform="rotate(-180 2 168.791)" fill="white"/>
<circle cx="132.401" cy="77.8145" r="2" transform="rotate(-180 132.401 77.8145)" fill="white"/>
<circle cx="2" cy="77.8145" r="2" transform="rotate(-180 2 77.8145)" fill="white"/>
<circle cx="246.629" cy="153.628" r="2" transform="rotate(-180 246.629 153.628)" fill="white"/>
<circle cx="116.228" cy="153.628" r="2" transform="rotate(-180 116.228 153.628)" fill="white"/>
<circle cx="246.629" cy="62.6514" r="2" transform="rotate(-180 246.629 62.6514)" fill="white"/>
<circle cx="116.228" cy="62.6514" r="2" transform="rotate(-180 116.228 62.6514)" fill="white"/>
<circle cx="230.452" cy="153.628" r="2" transform="rotate(-180 230.452 153.628)" fill="white"/>
<circle cx="100.055" cy="153.628" r="2" transform="rotate(-180 100.055 153.628)" fill="white"/>
<circle cx="230.452" cy="62.6514" r="2" transform="rotate(-180 230.452 62.6514)" fill="white"/>
<circle cx="100.055" cy="62.6514" r="2" transform="rotate(-180 100.055 62.6514)" fill="white"/>
<circle cx="214.281" cy="153.628" r="2" transform="rotate(-180 214.281 153.628)" fill="white"/>
<circle cx="83.8838" cy="153.628" r="2" transform="rotate(-180 83.8838 153.628)" fill="white"/>
<circle cx="214.281" cy="62.6514" r="2" transform="rotate(-180 214.281 62.6514)" fill="white"/>
<circle cx="83.8838" cy="62.6514" r="2" transform="rotate(-180 83.8838 62.6514)" fill="white"/>
<circle cx="198.109" cy="153.628" r="2" transform="rotate(-180 198.109 153.628)" fill="white"/>
<circle cx="67.707" cy="153.628" r="2" transform="rotate(-180 67.707 153.628)" fill="white"/>
<circle cx="198.109" cy="62.6514" r="2" transform="rotate(-180 198.109 62.6514)" fill="white"/>
<circle cx="67.707" cy="62.6514" r="2" transform="rotate(-180 67.707 62.6514)" fill="white"/>
<circle cx="180.923" cy="153.628" r="2" transform="rotate(-180 180.923 153.628)" fill="white"/>
<circle cx="50.5254" cy="153.628" r="2" transform="rotate(-180 50.5254 153.628)" fill="white"/>
<circle cx="180.923" cy="62.6514" r="2" transform="rotate(-180 180.923 62.6514)" fill="white"/>
<circle cx="50.5254" cy="62.6514" r="2" transform="rotate(-180 50.5254 62.6514)" fill="white"/>
<circle cx="164.754" cy="153.628" r="2" transform="rotate(-180 164.754 153.628)" fill="white"/>
<circle cx="34.3496" cy="153.628" r="2" transform="rotate(-180 34.3496 153.628)" fill="white"/>
<circle cx="164.754" cy="62.6514" r="2" transform="rotate(-180 164.754 62.6514)" fill="white"/>
<circle cx="34.3496" cy="62.6514" r="2" transform="rotate(-180 34.3496 62.6514)" fill="white"/>
<circle cx="148.577" cy="153.628" r="2" transform="rotate(-180 148.577 153.628)" fill="white"/>
<circle cx="18.1748" cy="153.628" r="2" transform="rotate(-180 18.1748 153.628)" fill="white"/>
<circle cx="148.577" cy="62.6514" r="2" transform="rotate(-180 148.577 62.6514)" fill="white"/>
<circle cx="18.1748" cy="62.6514" r="2" transform="rotate(-180 18.1748 62.6514)" fill="white"/>
<circle cx="132.401" cy="153.628" r="2" transform="rotate(-180 132.401 153.628)" fill="white"/>
<circle cx="2" cy="153.628" r="2" transform="rotate(-180 2 153.628)" fill="white"/>
<circle cx="132.401" cy="62.6514" r="2" transform="rotate(-180 132.401 62.6514)" fill="white"/>
<circle cx="2" cy="62.6514" r="2" transform="rotate(-180 2 62.6514)" fill="white"/>
<circle cx="246.629" cy="138.467" r="2" transform="rotate(-180 246.629 138.467)" fill="white"/>
<circle cx="116.228" cy="138.466" r="2" transform="rotate(-180 116.228 138.466)" fill="white"/>
<circle cx="246.629" cy="47.4883" r="2" transform="rotate(-180 246.629 47.4883)" fill="white"/>
<circle cx="116.228" cy="47.4883" r="2" transform="rotate(-180 116.228 47.4883)" fill="white"/>
<circle cx="230.452" cy="138.466" r="2" transform="rotate(-180 230.452 138.466)" fill="white"/>
<circle cx="100.055" cy="138.466" r="2" transform="rotate(-180 100.055 138.466)" fill="white"/>
<circle cx="230.452" cy="47.4883" r="2" transform="rotate(-180 230.452 47.4883)" fill="white"/>
<circle cx="100.055" cy="47.4883" r="2" transform="rotate(-180 100.055 47.4883)" fill="white"/>
<circle cx="214.281" cy="138.466" r="2" transform="rotate(-180 214.281 138.466)" fill="white"/>
<circle cx="83.8838" cy="138.466" r="2" transform="rotate(-180 83.8838 138.466)" fill="white"/>
<circle cx="214.281" cy="47.4883" r="2" transform="rotate(-180 214.281 47.4883)" fill="white"/>
<circle cx="83.8838" cy="47.4883" r="2" transform="rotate(-180 83.8838 47.4883)" fill="white"/>
<circle cx="198.109" cy="138.466" r="2" transform="rotate(-180 198.109 138.466)" fill="white"/>
<circle cx="67.707" cy="138.466" r="2" transform="rotate(-180 67.707 138.466)" fill="white"/>
<circle cx="198.109" cy="47.4883" r="2" transform="rotate(-180 198.109 47.4883)" fill="white"/>
<circle cx="67.707" cy="47.4883" r="2" transform="rotate(-180 67.707 47.4883)" fill="white"/>
<circle cx="180.923" cy="138.466" r="2" transform="rotate(-180 180.923 138.466)" fill="white"/>
<circle cx="50.5254" cy="138.466" r="2" transform="rotate(-180 50.5254 138.466)" fill="white"/>
<circle cx="180.923" cy="47.4883" r="2" transform="rotate(-180 180.923 47.4883)" fill="white"/>
<circle cx="50.5254" cy="47.4883" r="2" transform="rotate(-180 50.5254 47.4883)" fill="white"/>
<circle cx="164.754" cy="138.466" r="2" transform="rotate(-180 164.754 138.466)" fill="white"/>
<circle cx="34.3496" cy="138.466" r="2" transform="rotate(-180 34.3496 138.466)" fill="white"/>
<circle cx="164.754" cy="47.4883" r="2" transform="rotate(-180 164.754 47.4883)" fill="white"/>
<circle cx="34.3496" cy="47.4883" r="2" transform="rotate(-180 34.3496 47.4883)" fill="white"/>
<circle cx="148.577" cy="138.466" r="2" transform="rotate(-180 148.577 138.466)" fill="white"/>
<circle cx="18.1748" cy="138.466" r="2" transform="rotate(-180 18.1748 138.466)" fill="white"/>
<circle cx="148.577" cy="47.4883" r="2" transform="rotate(-180 148.577 47.4883)" fill="white"/>
<circle cx="18.1748" cy="47.4883" r="2" transform="rotate(-180 18.1748 47.4883)" fill="white"/>
<circle cx="132.401" cy="138.466" r="2" transform="rotate(-180 132.401 138.466)" fill="white"/>
<circle cx="2" cy="138.466" r="2" transform="rotate(-180 2 138.466)" fill="white"/>
<circle cx="132.401" cy="47.4883" r="2" transform="rotate(-180 132.401 47.4883)" fill="white"/>
<circle cx="2" cy="47.4883" r="2" transform="rotate(-180 2 47.4883)" fill="white"/>
<circle cx="246.629" cy="123.301" r="2" transform="rotate(-180 246.629 123.301)" fill="white"/>
<circle cx="116.228" cy="123.301" r="2" transform="rotate(-180 116.228 123.301)" fill="white"/>
<circle cx="246.629" cy="32.3271" r="2" transform="rotate(-180 246.629 32.3271)" fill="white"/>
<circle cx="116.228" cy="32.3252" r="2" transform="rotate(-180 116.228 32.3252)" fill="white"/>
<circle cx="230.452" cy="123.301" r="2" transform="rotate(-180 230.452 123.301)" fill="white"/>
<circle cx="100.055" cy="123.301" r="2" transform="rotate(-180 100.055 123.301)" fill="white"/>
<circle cx="230.452" cy="32.3252" r="2" transform="rotate(-180 230.452 32.3252)" fill="white"/>
<circle cx="100.055" cy="32.3252" r="2" transform="rotate(-180 100.055 32.3252)" fill="white"/>
<circle cx="214.281" cy="123.301" r="2" transform="rotate(-180 214.281 123.301)" fill="white"/>
<circle cx="83.8838" cy="123.301" r="2" transform="rotate(-180 83.8838 123.301)" fill="white"/>
<circle cx="214.281" cy="32.3252" r="2" transform="rotate(-180 214.281 32.3252)" fill="white"/>
<circle cx="83.8838" cy="32.3252" r="2" transform="rotate(-180 83.8838 32.3252)" fill="white"/>
<circle cx="198.109" cy="123.301" r="2" transform="rotate(-180 198.109 123.301)" fill="white"/>
<circle cx="67.707" cy="123.301" r="2" transform="rotate(-180 67.707 123.301)" fill="white"/>
<circle cx="198.109" cy="32.3252" r="2" transform="rotate(-180 198.109 32.3252)" fill="white"/>
<circle cx="67.707" cy="32.3252" r="2" transform="rotate(-180 67.707 32.3252)" fill="white"/>
<circle cx="180.923" cy="123.301" r="2" transform="rotate(-180 180.923 123.301)" fill="white"/>
<circle cx="50.5254" cy="123.301" r="2" transform="rotate(-180 50.5254 123.301)" fill="white"/>
<circle cx="180.923" cy="32.3252" r="2" transform="rotate(-180 180.923 32.3252)" fill="white"/>
<circle cx="50.5254" cy="32.3252" r="2" transform="rotate(-180 50.5254 32.3252)" fill="white"/>
<circle cx="164.754" cy="123.301" r="2" transform="rotate(-180 164.754 123.301)" fill="white"/>
<circle cx="34.3496" cy="123.301" r="2" transform="rotate(-180 34.3496 123.301)" fill="white"/>
<circle cx="164.754" cy="32.3252" r="2" transform="rotate(-180 164.754 32.3252)" fill="white"/>
<circle cx="34.3496" cy="32.3252" r="2" transform="rotate(-180 34.3496 32.3252)" fill="white"/>
<circle cx="148.577" cy="123.301" r="2" transform="rotate(-180 148.577 123.301)" fill="white"/>
<circle cx="18.1748" cy="123.301" r="2" transform="rotate(-180 18.1748 123.301)" fill="white"/>
<circle cx="148.577" cy="32.3252" r="2" transform="rotate(-180 148.577 32.3252)" fill="white"/>
<circle cx="18.1748" cy="32.3252" r="2" transform="rotate(-180 18.1748 32.3252)" fill="white"/>
<circle cx="132.401" cy="123.301" r="2" transform="rotate(-180 132.401 123.301)" fill="white"/>
<circle cx="2" cy="123.301" r="2" transform="rotate(-180 2 123.301)" fill="white"/>
<circle cx="132.401" cy="32.3252" r="2" transform="rotate(-180 132.401 32.3252)" fill="white"/>
<circle cx="2" cy="32.3252" r="2" transform="rotate(-180 2 32.3252)" fill="white"/>
<circle cx="246.629" cy="108.142" r="2" transform="rotate(-180 246.629 108.142)" fill="white"/>
<circle cx="116.228" cy="108.142" r="2" transform="rotate(-180 116.228 108.142)" fill="white"/>
<circle cx="246.629" cy="17.1631" r="2" transform="rotate(-180 246.629 17.1631)" fill="white"/>
<circle cx="116.228" cy="17.1631" r="2" transform="rotate(-180 116.228 17.1631)" fill="white"/>
<circle cx="230.452" cy="108.142" r="2" transform="rotate(-180 230.452 108.142)" fill="white"/>
<circle cx="100.055" cy="108.142" r="2" transform="rotate(-180 100.055 108.142)" fill="white"/>
<circle cx="230.452" cy="17.1631" r="2" transform="rotate(-180 230.452 17.1631)" fill="white"/>
<circle cx="100.055" cy="17.1631" r="2" transform="rotate(-180 100.055 17.1631)" fill="white"/>
<circle cx="214.281" cy="108.142" r="2" transform="rotate(-180 214.281 108.142)" fill="white"/>
<circle cx="83.8838" cy="108.142" r="2" transform="rotate(-180 83.8838 108.142)" fill="white"/>
<circle cx="214.281" cy="17.1631" r="2" transform="rotate(-180 214.281 17.1631)" fill="white"/>
<circle cx="83.8838" cy="17.1631" r="2" transform="rotate(-180 83.8838 17.1631)" fill="white"/>
<circle cx="198.109" cy="108.142" r="2" transform="rotate(-180 198.109 108.142)" fill="white"/>
<circle cx="67.707" cy="108.142" r="2" transform="rotate(-180 67.707 108.142)" fill="white"/>
<circle cx="198.109" cy="17.1631" r="2" transform="rotate(-180 198.109 17.1631)" fill="white"/>
<circle cx="67.707" cy="17.1631" r="2" transform="rotate(-180 67.707 17.1631)" fill="white"/>
<circle cx="180.923" cy="108.142" r="2" transform="rotate(-180 180.923 108.142)" fill="white"/>
<circle cx="50.5254" cy="108.142" r="2" transform="rotate(-180 50.5254 108.142)" fill="white"/>
<circle cx="180.923" cy="17.1631" r="2" transform="rotate(-180 180.923 17.1631)" fill="white"/>
<circle cx="50.5254" cy="17.1631" r="2" transform="rotate(-180 50.5254 17.1631)" fill="white"/>
<circle cx="164.754" cy="108.142" r="2" transform="rotate(-180 164.754 108.142)" fill="white"/>
<circle cx="34.3496" cy="108.142" r="2" transform="rotate(-180 34.3496 108.142)" fill="white"/>
<circle cx="164.754" cy="17.1631" r="2" transform="rotate(-180 164.754 17.1631)" fill="white"/>
<circle cx="34.3496" cy="17.1631" r="2" transform="rotate(-180 34.3496 17.1631)" fill="white"/>
<circle cx="148.577" cy="108.142" r="2" transform="rotate(-180 148.577 108.142)" fill="white"/>
<circle cx="18.1748" cy="108.142" r="2" transform="rotate(-180 18.1748 108.142)" fill="white"/>
<circle cx="148.577" cy="17.1631" r="2" transform="rotate(-180 148.577 17.1631)" fill="white"/>
<circle cx="18.1748" cy="17.1631" r="2" transform="rotate(-180 18.1748 17.1631)" fill="white"/>
<circle cx="132.401" cy="108.142" r="2" transform="rotate(-180 132.401 108.142)" fill="white"/>
<circle cx="2" cy="108.142" r="2" transform="rotate(-180 2 108.142)" fill="white"/>
<circle cx="132.401" cy="17.1631" r="2" transform="rotate(-180 132.401 17.1631)" fill="white"/>
<circle cx="2" cy="17.1631" r="2" transform="rotate(-180 2 17.1631)" fill="white"/>
<circle cx="246.629" cy="92.9756" r="2" transform="rotate(-180 246.629 92.9756)" fill="white"/>
<circle cx="116.228" cy="92.9756" r="2" transform="rotate(-180 116.228 92.9756)" fill="white"/>
<circle cx="246.629" cy="2" r="2" transform="rotate(-180 246.629 2)" fill="white"/>
<circle cx="116.228" cy="2" r="2" transform="rotate(-180 116.228 2)" fill="white"/>
<circle cx="230.452" cy="92.9756" r="2" transform="rotate(-180 230.452 92.9756)" fill="white"/>
<circle cx="100.055" cy="92.9756" r="2" transform="rotate(-180 100.055 92.9756)" fill="white"/>
<circle cx="230.452" cy="2" r="2" transform="rotate(-180 230.452 2)" fill="white"/>
<circle cx="100.055" cy="2" r="2" transform="rotate(-180 100.055 2)" fill="white"/>
<circle cx="214.281" cy="92.9756" r="2" transform="rotate(-180 214.281 92.9756)" fill="white"/>
<circle cx="83.8838" cy="92.9756" r="2" transform="rotate(-180 83.8838 92.9756)" fill="white"/>
<circle cx="214.281" cy="2" r="2" transform="rotate(-180 214.281 2)" fill="white"/>
<circle cx="83.8838" cy="2" r="2" transform="rotate(-180 83.8838 2)" fill="white"/>
<circle cx="198.109" cy="92.9756" r="2" transform="rotate(-180 198.109 92.9756)" fill="white"/>
<circle cx="67.707" cy="92.9756" r="2" transform="rotate(-180 67.707 92.9756)" fill="white"/>
<circle cx="198.109" cy="2" r="2" transform="rotate(-180 198.109 2)" fill="white"/>
<circle cx="67.707" cy="2" r="2" transform="rotate(-180 67.707 2)" fill="white"/>
<circle cx="180.923" cy="92.9756" r="2" transform="rotate(-180 180.923 92.9756)" fill="white"/>
<circle cx="50.5254" cy="92.9756" r="2" transform="rotate(-180 50.5254 92.9756)" fill="white"/>
<circle cx="180.923" cy="2" r="2" transform="rotate(-180 180.923 2)" fill="white"/>
<circle cx="50.5254" cy="2" r="2" transform="rotate(-180 50.5254 2)" fill="white"/>
<circle cx="164.754" cy="92.9756" r="2" transform="rotate(-180 164.754 92.9756)" fill="white"/>
<circle cx="34.3496" cy="92.9756" r="2" transform="rotate(-180 34.3496 92.9756)" fill="white"/>
<circle cx="164.754" cy="2" r="2" transform="rotate(-180 164.754 2)" fill="white"/>
<circle cx="34.3496" cy="1.99998" r="2" transform="rotate(-180 34.3496 1.99998)" fill="white"/>
<circle cx="148.577" cy="92.9756" r="2" transform="rotate(-180 148.577 92.9756)" fill="white"/>
<circle cx="18.1748" cy="92.9756" r="2" transform="rotate(-180 18.1748 92.9756)" fill="white"/>
<circle cx="148.577" cy="2" r="2" transform="rotate(-180 148.577 2)" fill="white"/>
<circle cx="18.1748" cy="1.99998" r="2" transform="rotate(-180 18.1748 1.99998)" fill="white"/>
<circle cx="132.401" cy="92.9756" r="2" transform="rotate(-180 132.401 92.9756)" fill="white"/>
<circle cx="2" cy="92.9756" r="2" transform="rotate(-180 2 92.9756)" fill="white"/>
<circle cx="132.401" cy="2" r="2" transform="rotate(-180 132.401 2)" fill="white"/>
<circle cx="2" cy="1.99998" r="2" transform="rotate(-180 2 1.99998)" fill="white"/>
</svg>
