<svg width="27" height="31" viewBox="0 0 27 31" fill="none" xmlns="http://www.w3.org/2000/svg">
<path d="M9.08632 15.5483C8.55999 15.963 8.2417 16.432 8.1397 16.9159L2.42632 19.3787C1.65512 19.6919 1.1105 20.3686 0.969638 21.1892L0.22901 25.4977C0.0774498 26.3794 0.534815 27.2626 1.34107 27.6457C5.85198 29.7883 10.0045 30.528 13.5885 30.5278C19.0907 30.5276 23.2536 28.7845 25.3108 27.6981C26.0842 27.2896 26.4945 26.4329 26.3318 25.5662L25.4601 20.9285C25.3978 20.5968 25.2621 20.2881 25.0744 20.0166C25.0724 20.0144 25.0717 20.0113 25.0695 20.009C25.069 20.0086 25.0684 20.0084 25.0679 20.0079C24.7956 19.6175 24.4128 19.3068 23.9585 19.1345L18.1808 16.9101C18.0775 16.4284 17.7592 15.9615 17.2351 15.5485C17.0248 15.3829 16.7529 15.3325 16.5016 15.3907L16.8638 14.518C17.1467 13.837 17.2902 13.1178 17.2902 12.38V12.1309C17.4257 12.1698 17.581 12.1794 17.7413 12.1269C18.2071 11.9745 18.5236 11.389 18.7093 10.3372C18.8806 9.36623 18.8093 8.86018 18.4781 8.69612C18.285 8.60014 18.0732 8.66219 17.8904 8.768L17.9123 8.35014C17.9567 8.2959 17.996 8.2459 18.0248 8.20617C18.0853 8.12313 18.1551 8.05393 18.2323 8.00036L19.4464 7.15996C19.5044 7.11978 19.5408 7.05483 19.5444 6.98407C19.5482 6.91353 19.5189 6.84501 19.4654 6.7988L19.0366 6.42893C18.7236 6.15906 18.5189 5.77762 18.4605 5.35528C18.2707 3.98476 17.3779 0.800361 13.1942 0.800361C13.1855 0.800138 13.177 0.800138 13.1685 0.800361C8.87343 0.800361 8.05177 4.28293 7.90223 5.35128C7.84285 5.7765 7.63415 6.16265 7.31497 6.4379L6.89644 6.79862C6.84287 6.84482 6.81363 6.91313 6.81743 6.98389C6.82122 7.05442 6.85738 7.11938 6.91542 7.15978L8.12925 8.00018C8.2067 8.05375 8.27656 8.12294 8.33683 8.20598C8.36563 8.24549 8.40469 8.29549 8.44911 8.34973L8.47098 8.76759C8.28862 8.66201 8.07611 8.59996 7.88327 8.69572C7.55202 8.85978 7.48103 9.36583 7.65224 10.3368C7.83773 11.3886 8.15447 11.9741 8.6203 12.1265C8.78057 12.1787 8.9357 12.1691 9.07141 12.1305V12.3796C9.07141 13.1169 9.21471 13.8363 9.49775 14.5176L9.86516 15.4024C9.60199 15.3263 9.30913 15.3727 9.08613 15.5484L9.08632 15.5483ZM9.36914 15.9074C9.44213 15.8498 9.53119 15.8213 9.6207 15.8213C9.71378 15.8213 9.8073 15.8523 9.88297 15.9144C10.8216 16.6802 11.7671 16.9941 12.3743 17.1226C11.3718 17.8856 11.0321 19.065 10.9187 19.7064L8.71777 17.7403C8.67648 17.7032 8.6229 17.6441 8.60259 17.5727C8.40036 16.8548 8.90795 16.2709 9.36911 15.9075L9.36914 15.9074ZM2.60285 19.8005L8.11091 17.4264C8.12073 17.5166 8.13747 17.6068 8.16292 17.6967C8.20265 17.8373 8.28948 17.9702 8.41359 18.0811L8.84551 18.467L3.38951 20.9298C3.10133 21.0599 2.76093 20.9659 2.58013 20.7072L2.13616 20.0722C2.27656 19.9626 2.43192 19.87 2.60291 19.8006L2.60285 19.8005ZM0.67965 25.5748L1.42028 21.2663C1.47608 20.942 1.6109 20.6462 1.80644 20.3978L2.20532 20.9686C2.41939 21.2748 2.7647 21.4445 3.11984 21.4445C3.27386 21.4445 3.42966 21.4126 3.57743 21.346L9.21851 18.7998L10.939 20.3368C10.9817 20.375 11.0361 20.3949 11.0913 20.3949C11.1212 20.3949 11.1511 20.3891 11.1797 20.3772C11.2609 20.3431 11.3154 20.2652 11.3196 20.1772C11.3205 20.1572 11.4272 18.2927 12.8098 17.3768V30.0574C9.4667 29.9558 5.65492 29.1884 1.53721 27.2323C0.915096 26.937 0.562638 26.2553 0.679381 25.575L0.67965 25.5748ZM25.8825 25.65C26.0082 26.3188 25.6928 26.9791 25.0977 27.2933C23.0383 28.3806 18.8309 30.1371 13.2669 30.067V17.235C14.8749 18.0788 15.001 20.1564 15.0021 20.1779C15.0066 20.2658 15.061 20.3435 15.1423 20.3774C15.1709 20.3895 15.2008 20.395 15.2307 20.395C15.2858 20.395 15.3401 20.3752 15.3827 20.337L17.1053 18.7979L23.1253 21.3923C23.2458 21.4443 23.3726 21.4693 23.4983 21.4693C23.736 21.4693 23.9695 21.3792 24.1485 21.2077L24.8525 20.5332C24.9255 20.684 24.9795 20.8445 25.011 21.0122L25.8825 25.65ZM24.6006 20.1413L23.8321 20.8777C23.6914 21.0126 23.4847 21.0498 23.3062 20.9726L17.481 18.4621L17.908 18.0806C18.0324 17.9697 18.119 17.8367 18.1585 17.6962C18.1853 17.6016 18.2029 17.5067 18.2127 17.4119L23.7953 19.561C24.1131 19.6815 24.3888 19.8846 24.6004 20.1413L24.6006 20.1413ZM16.952 15.9072C17.4134 16.2706 17.9207 16.8545 17.7185 17.5724C17.6984 17.644 17.6448 17.703 17.6033 17.74L16.9036 18.365C16.9033 18.3653 16.9031 18.3655 16.9029 18.3657L15.4027 19.7061C15.2893 19.0648 14.9493 17.8851 13.9468 17.1224C14.4901 17.0074 15.3042 16.7414 16.1417 16.1387C16.1511 16.1331 16.1591 16.126 16.1676 16.119C16.2575 16.0536 16.3477 15.9878 16.4379 15.9141C16.5868 15.7927 16.8031 15.7898 16.952 15.9072L16.952 15.9072ZM7.41828 6.95174L7.61315 6.78388C8.0165 6.4359 8.28012 5.94948 8.35469 5.41423C8.52969 4.16354 9.34869 1.25708 13.169 1.25708C13.1775 1.25731 13.1853 1.25731 13.1933 1.25708C16.8795 1.25708 17.792 3.86308 18.0074 5.4176C18.0812 5.95019 18.3406 6.43211 18.7379 6.77474L18.9433 6.95175L17.9723 7.62409C17.8529 7.70691 17.746 7.81204 17.6554 7.93682C17.3781 8.31785 16.3014 9.55625 14.0404 9.55602C14.0297 9.55602 14.0187 9.55602 14.008 9.5558H14.0078C13.4562 9.55312 12.9051 9.55312 12.3533 9.5558C10.0627 9.56941 8.9846 8.31963 8.70603 7.93683C8.6154 7.81205 8.50871 7.7067 8.38906 7.62388L7.41828 6.95174ZM9.39016 11.537C9.30601 11.5011 9.20847 11.5187 9.14218 11.5819C9.14017 11.5837 8.95133 11.7537 8.76271 11.6917C8.6328 11.6491 8.30869 11.4243 8.10265 10.2569C7.92497 9.24952 8.08569 9.10597 8.08391 9.10597C8.14842 9.09079 8.38235 9.23588 8.55868 9.42606C8.62431 9.49683 8.72743 9.5187 8.81538 9.4812C8.904 9.4437 8.9598 9.35486 8.95467 9.25888L8.93257 8.84147C9.55868 9.38209 10.6469 10.0131 12.321 10.0131C12.3326 10.0131 12.3442 10.0131 12.3558 10.0129C12.9058 10.01 13.4556 10.01 14.0056 10.0129C14.0174 10.0131 14.0288 10.0131 14.0404 10.0131C15.7143 10.0131 16.8024 9.38187 17.4288 8.84147L17.4069 9.25888C17.4018 9.35508 17.4576 9.44415 17.5464 9.48164C17.6355 9.51914 17.7379 9.4966 17.8033 9.42606C17.9649 9.25129 18.2049 9.08901 18.2734 9.10419C18.275 9.10553 18.4375 9.24727 18.2591 10.2573C18.0538 11.4207 17.7308 11.6477 17.6013 11.6913C17.4098 11.7558 17.2201 11.5826 17.2194 11.5821C17.1531 11.5187 17.0553 11.5011 16.9714 11.5373C16.8873 11.5732 16.8326 11.656 16.8326 11.7475V12.3796C16.8326 13.0567 16.7009 13.7171 16.4413 14.3424L15.8388 15.7935C14.5377 16.7116 13.2908 16.7542 13.2774 16.7547C13.2339 16.7556 13.1946 16.7712 13.16 16.7937C13.1551 16.7906 13.15 16.7877 13.1448 16.7848C13.137 16.7806 13.1303 16.775 13.1221 16.7716C13.0973 16.7616 13.0707 16.7553 13.0426 16.7547C13.0294 16.7542 11.8185 16.7118 10.5382 15.8323L9.91988 14.3424C9.66005 13.717 9.52858 13.0564 9.52858 12.3796V11.7475C9.5288 11.6556 9.47412 11.573 9.39018 11.537L9.39016 11.537Z" fill="#E40000"/>
<path d="M10.5582 23.7603H3.37994C3.2536 23.7603 3.15137 23.8625 3.15137 23.9888V25.8991C3.15137 26.0255 3.2536 26.1277 3.37994 26.1277H10.5582C10.6846 26.1277 10.7868 26.0255 10.7868 25.8991V23.9888C10.7868 23.8627 10.6843 23.7603 10.5582 23.7603ZM10.3297 25.6706H3.60851V24.2174H10.3297V25.6706Z" fill="#E40000"/>
<path d="M23.1871 23.7603H16.0088C15.8825 23.7603 15.7803 23.8625 15.7803 23.9888V25.8991C15.7803 26.0255 15.8825 26.1277 16.0088 26.1277H23.1871C23.3135 26.1277 23.4157 26.0255 23.4157 25.8991V23.9888C23.4157 23.8627 23.3135 23.7603 23.1871 23.7603ZM22.9586 25.6706H16.2374V24.2174H22.9586V25.6706Z" fill="#E40000"/>
<path d="M12.1168 5.02081L11.7027 6.30029C11.6721 6.39449 11.7058 6.49761 11.7857 6.55565C11.8656 6.61391 11.9741 6.61369 12.0543 6.55588L13.1417 5.76679L14.2292 6.55588C14.2694 6.58489 14.3165 6.5994 14.3634 6.5994C14.4105 6.5994 14.4578 6.58489 14.4975 6.55565C14.5777 6.49762 14.6112 6.39449 14.5806 6.30029L14.1665 5.02081L15.2545 4.22972C15.3346 4.17146 15.3679 4.06834 15.3375 3.97414C15.3069 3.87994 15.2192 3.8161 15.1201 3.8161H13.7755L13.3592 2.53662C13.3286 2.44242 13.2409 2.37881 13.1417 2.37881C13.0426 2.37881 12.9551 2.44265 12.9243 2.53662L12.508 3.8161H11.1632C11.0641 3.8161 10.9766 3.87994 10.9458 3.97414C10.9152 4.06833 10.9487 4.17146 11.0288 4.22972L12.1168 5.02081ZM12.6741 4.27349C12.7732 4.27349 12.8607 4.20965 12.8915 4.11568L13.1418 3.34625L13.392 4.11568C13.4226 4.20988 13.5103 4.27349 13.6094 4.27349H14.4172L13.7639 4.74872C13.6839 4.80675 13.6505 4.90988 13.6808 5.00385L13.9299 5.77373L13.2759 5.29918C13.1958 5.24114 13.0875 5.24114 13.0074 5.29918L12.3534 5.77373L12.6025 5.00385C12.6331 4.90965 12.5994 4.80675 12.5195 4.74872L11.8661 4.27349H12.6741Z" fill="#E40000"/>
</svg>
