<svg width="64" height="50" viewBox="0 0 64 50" fill="none" xmlns="http://www.w3.org/2000/svg">
<path d="M1.84375 27.0615H7.625C8.25 27.0615 8.875 27.6865 8.875 28.3115V37.0615H26.5312L30.5937 28.624L15.9062 23.4678C15.5938 23.3115 15.2812 23.1553 15.2812 22.8428C15.125 22.5303 15.125 22.2178 15.2812 21.9053L17.9375 13.624L22.1562 1.59277C22.3125 1.28027 22.4687 0.967773 22.7812 0.967773C23.0937 0.811523 23.4062 0.811523 23.7188 0.967773L61.8438 14.0928C62.3125 14.249 62.625 14.5615 62.625 15.0303C62.625 15.499 62.4687 15.9678 62 16.2803L55.75 20.3428L50.9062 34.4053C50.75 34.7178 50.5938 35.0303 50.2813 35.0303C50.125 35.1865 49.9687 35.1865 49.8125 35.1865C49.6562 35.1865 49.5 35.1865 49.3438 35.1865L32.9375 29.4053L28.4062 38.7803C28.25 39.249 27.7812 39.4053 27.3125 39.4053H8.875V48.1553C8.875 48.7803 8.25 49.4053 7.625 49.4053H1.84375C1.21875 49.4053 0.593754 48.7803 0.593754 48.1553V28.3115C0.593754 27.6865 1.0625 27.0615 1.84375 27.0615ZM24.0312 3.46777L20.5938 13.3115L47.625 22.8428L53.875 18.7803L58.5625 15.6553L24.0312 3.46777ZM52.4688 22.5303L48.5625 25.1865C48.4062 25.3428 48.25 25.3428 48.0937 25.3428C48.0937 25.3428 48.0938 25.3428 47.9375 25.3428C47.9375 25.3428 47.9375 25.3428 47.7812 25.3428C47.625 25.3428 47.4687 25.3428 47.3125 25.3428L19.8125 15.6553L17.7812 21.5928L48.875 32.5303L52.4688 22.5303ZM2.9375 46.9053H6.375V29.5615H2.9375V46.9053Z" fill="white"/>
<path d="M55.7492 23.624C55.9055 23.3115 56.0617 22.999 56.3742 22.999C56.6867 22.8428 56.9992 22.8428 57.3117 22.999L62.6242 24.874C63.2492 25.0303 63.5617 25.8115 63.4055 26.4365L59.968 36.124C59.8117 36.5928 59.343 36.9053 58.8742 36.9053C58.718 36.9053 58.5617 36.9053 58.4055 36.9053L53.093 35.0303C52.7805 34.874 52.468 34.7178 52.468 34.4053C52.3117 34.0928 52.3117 33.7803 52.468 33.4678L55.7492 23.624ZM58.093 34.0928L60.593 26.749L57.6242 25.6553L55.1242 32.999L58.093 34.0928Z" fill="white"/>
</svg>
