<svg width="74" height="62" viewBox="0 0 74 62" fill="none" xmlns="http://www.w3.org/2000/svg">
<path d="M67.6272 47.8599H51.2758H21.4358H10.2516H7.11547C6.45922 47.8599 5.80353 47.9241 5.19533 47.6038C4.05917 47.0117 4.05917 45.8755 4.05917 44.7718V40.8036V27.0916V12.5316C4.05917 10.2916 3.96319 8.01935 4.05917 5.77935C4.17134 3.13935 7.16303 3.61921 9.00332 3.61921H19.2433H48.939C55.1147 3.61921 61.2912 3.57122 67.4676 3.61921C68.8113 3.63539 69.7393 4.51541 69.7873 5.85921C69.8191 6.70743 69.7873 7.57121 69.7873 8.43507V20.7548V45.1862C69.7884 46.5634 69.1964 47.8118 67.6283 47.8598C65.5803 47.924 65.5642 51.1238 67.6283 51.0595C70.7165 50.9635 72.972 48.5472 72.9883 45.4914V42.4355V29.3316C72.9883 21.5236 73.0681 13.6988 72.9883 5.89164C72.9565 2.86764 70.6362 0.499924 67.6122 0.435781C67.0999 0.419598 66.572 0.435781 66.0603 0.435781H56.8126H26.7169C19.997 0.435781 13.261 0.419598 6.54117 0.435781C4.18903 0.435781 2.09303 1.65174 1.21303 3.90792C0.797288 4.96372 0.860917 6.08364 0.860917 7.18807V18.4838V44.7395C0.860917 46.3718 1.05289 47.8756 2.15667 49.2032C3.30846 50.5626 4.97253 51.0586 6.70082 51.0586H14.1885H43.4357H66.4114H67.6273C69.6921 51.0586 69.6921 47.8589 67.6279 47.8589L67.6272 47.8599Z" fill="white"/>
<path d="M2.55397 41.2042H9.40225H25.8508H45.738H62.858C65.642 41.2042 68.4423 41.3164 71.2257 41.2042H71.3379C73.402 41.2042 73.402 38.0045 71.3379 38.0045H64.4896H48.041H28.1538H11.0338C8.24985 38.0045 5.44956 37.8923 2.66613 38.0045H2.55397C0.489824 38.0045 0.489824 41.2042 2.55397 41.2042Z" fill="white"/>
<path d="M23.7069 61.6514H46.8269H50.155C52.2192 61.6514 52.2192 58.4517 50.155 58.4517H27.035H23.7069C21.6589 58.4511 21.6589 61.6514 23.7069 61.6514Z" fill="white"/>
<path d="M28.6182 49.5728V60.1486C28.6182 62.2128 31.8179 62.2128 31.8179 60.1486V49.5728C31.8179 47.5086 28.6182 47.5086 28.6182 49.5728Z" fill="white"/>
<path d="M42.0586 49.5728V60.1486C42.0586 62.2128 45.2583 62.2128 45.2583 60.1486V49.5728C45.2583 47.5086 42.0586 47.5086 42.0586 49.5728Z" fill="white"/>
</svg>
