<svg width="64" height="70" viewBox="0 0 64 70" fill="none" xmlns="http://www.w3.org/2000/svg">
<path d="M63.3488 68.7082L63.3466 68.6886C62.2288 58.6886 61.4912 52.0815 58.4862 47.0044C55.4566 41.8849 50.3322 38.5138 40.2133 34.9854C39.9326 34.0557 39.441 33.2504 38.7384 32.5896C39.5476 31.3692 40.1369 29.4501 40.523 26.7905C41.5638 26.0567 42.3249 24.4234 42.8974 21.7079C43.494 19.8274 43.4622 18.7408 42.7948 18.1895C42.4108 17.8725 41.9354 17.8474 41.4929 17.935C41.5018 17.584 41.489 17.1767 41.4571 16.7057C41.677 16.3798 41.8718 16.0394 42.037 15.685C42.0375 15.6834 42.0386 15.6817 42.0392 15.68C42.0425 15.6733 42.0459 15.6672 42.0492 15.6605C42.0632 15.6304 42.0738 15.6002 42.0833 15.5684C42.0855 15.5612 42.0872 15.5528 42.0889 15.5455C42.0978 15.5104 42.1045 15.4752 42.1084 15.4395C42.1089 15.4356 42.1101 15.4322 42.1106 15.4283L42.3785 12.4122C44.4455 12.2794 45.6748 11.0193 45.5883 9.10691C45.5007 7.17048 44.0453 4.95677 41.7892 3.32734C39.9142 1.97298 36.6625 0.398769 31.8193 0.586769C31.802 0.587327 31.7858 0.588443 31.7685 0.590675C28.1111 0.997489 24.6503 2.3161 22.0224 4.30553C19.6395 6.10967 18.2618 8.21182 18.3365 9.92825C18.3611 10.4874 18.6518 12.2285 21.24 12.5292L21.543 15.4388C21.5435 15.4427 21.5447 15.4472 21.5452 15.4517C21.5502 15.4907 21.5575 15.5298 21.5687 15.5683C21.5692 15.5705 21.5709 15.5739 21.572 15.5767C21.5793 15.5995 21.5876 15.6224 21.5966 15.6453C21.8187 16.1604 22.1044 16.647 22.4453 17.1017C22.4314 17.4086 22.4258 17.6871 22.4325 17.9354C21.99 17.8478 21.514 17.8735 21.1306 18.1899C20.4626 18.7418 20.4308 19.8272 21.0279 21.7083C21.601 24.4232 22.3616 26.057 23.4023 26.7909C23.803 29.5493 24.4219 31.5107 25.2773 32.7223C24.6702 33.3467 24.2383 34.0895 23.981 34.9355C23.904 34.9355 23.827 34.9455 23.7506 34.9712C13.6071 38.504 8.47342 41.8774 5.43913 47.004C2.43413 52.0822 1.69642 58.6887 0.578702 68.6883L0.57647 68.7073C0.574237 68.7235 0.573121 68.7408 0.572563 68.757C0.567541 68.8379 0.577586 68.916 0.598791 68.9897C0.628925 69.0934 0.681936 69.1872 0.752246 69.2653C0.820885 69.3423 0.907376 69.4043 1.00448 69.4439C1.07646 69.474 1.15403 69.4919 1.23495 69.4969C1.25225 69.4975 1.26843 69.4986 1.28461 69.4975H62.6375H62.6475C62.6604 69.4975 62.6743 69.4969 62.6877 69.4969C62.7692 69.4919 62.8467 69.474 62.9187 69.4439C62.9193 69.4439 62.9193 69.4439 62.9204 69.4433C63.0175 69.4026 63.1023 69.3412 63.171 69.2653C63.2413 69.1872 63.2948 69.0929 63.3244 68.9885C63.3456 68.9143 63.3557 68.8356 63.3506 68.7542C63.3512 68.7408 63.3495 68.7246 63.3479 68.7078L63.3488 68.7082ZM59.6284 53.5667C60.067 55.2175 60.418 57.0293 60.7288 59.0372C60.6535 59.026 60.5748 59.026 60.4945 59.0405C59.9933 59.132 59.6178 59.0656 59.3466 58.838C58.9816 58.5305 58.5542 57.7369 58.5631 55.7057C58.6613 55.3424 58.6725 54.6967 57.8594 54.0862C59.1262 53.392 59.5474 53.5254 59.6284 53.5667L59.6284 53.5667ZM45.0727 38.3553C50.2311 40.5617 53.6051 42.8453 55.9091 45.7209C55.5737 45.991 55.2729 46.2717 55.0363 46.506C51.1953 42.6439 47.9342 40.5078 45.1022 39.9999C45.0458 39.3626 45.0497 38.7929 45.0726 38.3553L45.0727 38.3553ZM36.8545 43.8703C36.4042 43.4696 35.9126 43.1398 35.46 42.8368C35.0487 42.5612 34.6609 42.2994 34.4394 42.0673L33.1045 40.1906C36.0247 37.9752 37.815 36.113 38.512 34.5562C39.676 36.6287 39.1029 39.9094 36.8545 43.8703V43.8703ZM30.8077 42.7967L32.099 41.2007L33.2167 42.7715L35.07 61.9458L31.998 65.7734L28.8607 62.0909L30.8077 42.7967ZM32.1347 39.1611C29.1564 36.9161 27.7993 35.3777 27.2 34.3731C28.8663 35.4947 30.4148 36.0561 31.964 36.0561C33.6576 36.0561 35.3518 35.3837 37.2 34.0415C36.7379 35.0214 35.4623 36.6509 32.1347 39.1609V39.1611ZM22.6385 12.3697C28.2434 10.6822 34.4093 10.6012 40.9914 12.128L40.771 14.6107C33.9987 14.075 27.9841 14.0694 22.8695 14.5934L22.6385 12.3697ZM31.3511 7.98794L31.273 7.97566C30.4181 7.84732 30.22 7.73348 30.1586 7.33225C30.1045 6.97789 30.259 6.55658 30.4086 6.14865C30.5475 5.76806 30.6921 5.37465 30.6837 4.97901C30.6804 4.81159 30.6519 4.66148 30.61 4.52924C30.7496 4.56495 30.903 4.59118 31.0754 4.59787C31.2959 4.6068 31.6569 4.57332 31.9839 4.43549C32.1658 4.51864 32.4125 4.60457 32.7964 4.59955C32.9923 4.59731 33.1664 4.5683 33.3232 4.52756C33.1714 4.9645 33.2278 5.33559 33.4655 6.00684C33.4884 6.07157 33.5118 6.13687 33.5364 6.20383C33.6809 6.59836 33.8165 6.97057 33.7708 7.31656C33.7155 7.73453 33.504 7.85842 32.6402 7.98117C32.4197 8.01242 32.1759 8.04702 31.9543 8.12906C31.7535 8.05316 31.542 8.01634 31.3511 7.98788L31.3511 7.98794ZM23.8728 16.6319C23.8483 16.3585 23.6669 16.128 23.413 16.036C23.3951 16.0092 23.3756 15.9829 23.3583 15.9562C28.2105 15.4857 33.8835 15.4935 40.254 15.979C38.653 18.3055 35.388 19.7335 31.6223 19.6866C28.3349 19.6464 25.4906 18.4896 23.8729 16.6319L23.8728 16.6319ZM19.7423 9.86794C19.6418 7.58166 24.1814 2.85908 31.898 1.9918C36.3271 1.8255 39.2724 3.2457 40.9655 4.46837C42.8528 5.8311 44.1157 7.67651 44.1827 9.17151C44.2446 10.556 43.2379 10.9399 42.3384 11.0079C42.2095 10.975 42.0806 10.9443 41.9506 10.9125C41.9467 10.9108 41.9416 10.9108 41.9377 10.9092C38.5745 10.0822 35.311 9.65694 32.1632 9.63573C32.1961 9.62847 32.2279 9.61843 32.2586 9.60615C32.3607 9.56597 32.4494 9.50347 32.5214 9.42424C32.6062 9.40638 32.7346 9.38852 32.835 9.37457C33.5225 9.27747 34.9533 9.0749 35.1632 7.50343C35.2553 6.8137 35.0343 6.20767 34.8563 5.72157C34.8334 5.66018 34.8116 5.59936 34.7904 5.53966C34.7447 5.40963 34.6375 5.10718 34.6442 5.01231C34.6492 4.94758 34.7748 4.73553 34.8278 4.64513C34.9818 4.38397 34.9517 4.05417 34.7536 3.82481C34.724 3.79077 34.7039 3.76343 34.685 3.7372C34.6342 3.66968 34.5706 3.58542 34.4489 3.46544C34.3691 3.33877 34.2748 3.24279 34.0929 3.1016C33.8948 2.94759 33.6303 2.91076 33.3965 3.0045L33.291 3.04803C33.07 3.13955 32.9377 3.19144 32.7759 3.19423C32.6431 3.19646 32.6174 3.18307 32.4908 3.12057C32.402 3.07649 32.2915 3.02236 32.1448 2.97548C31.8981 2.89569 31.628 2.9593 31.4428 3.1362C31.3825 3.1641 31.2352 3.19814 31.1308 3.19312C30.9645 3.18642 30.8256 3.12839 30.6336 3.04859L30.5281 3.00283C30.2954 2.90908 30.0304 2.94591 29.8317 3.09937C29.6258 3.25953 29.4528 3.47493 29.3005 3.6641C29.2547 3.72102 29.2106 3.77571 29.1699 3.82259C28.9707 4.05139 28.9411 4.38174 29.0957 4.64234C29.1135 4.67248 29.133 4.70428 29.1542 4.73777C29.2296 4.85719 29.2753 4.93364 29.2759 5.00451C29.2781 5.13732 29.1766 5.41745 29.0856 5.66411C28.8953 6.18475 28.6576 6.83319 28.7664 7.54297C28.9974 9.05582 30.3401 9.25725 31.0627 9.36497L31.1386 9.37613C31.2764 9.39733 31.3763 9.41686 31.4349 9.43416C31.5231 9.52791 31.6358 9.59655 31.7591 9.63226C28.2798 9.64677 24.9455 10.1557 21.7798 11.1601C20.8485 11.1238 19.7854 10.8593 19.7424 9.86771L19.7423 9.86794ZM24.3667 25.7322C23.9258 25.5135 23.0849 24.6569 22.3985 21.3835C22.3935 21.3601 22.3874 21.3372 22.3796 21.3132C21.9398 19.9388 21.9945 19.4399 22.0336 19.2953C22.1379 19.2992 22.4181 19.3461 22.9845 19.6547C23.2512 19.8009 23.5827 19.7574 23.8042 19.5476C24.0252 19.3377 24.0866 19.0096 23.956 18.7345C23.9454 18.7116 23.9292 18.6692 23.9119 18.5972C25.8321 20.133 28.5586 21.0537 31.6045 21.0911C31.6704 21.0917 31.7351 21.0928 31.8015 21.0928C35.1062 21.0928 38.0644 20.0487 40.0644 18.2813C40.0364 18.5637 39.9935 18.6887 39.9712 18.7345C39.8406 19.0096 39.902 19.3377 40.1229 19.5475C40.3439 19.7574 40.6754 19.7998 40.9427 19.6547C41.5091 19.3461 41.7887 19.2998 41.8936 19.2953C41.9327 19.4387 41.9868 19.9387 41.5476 21.3132C41.5403 21.336 41.5348 21.3595 41.5286 21.3835C40.8422 24.6569 40.0008 25.5135 39.5605 25.7322C39.3518 25.836 39.2078 26.0369 39.1766 26.2679C38.5661 30.7623 37.5208 32.2082 36.7518 32.6306C36.7217 32.6479 36.6921 32.6663 36.6642 32.6875C33.1932 35.3265 30.7328 35.3265 27.2619 32.6875C27.234 32.6663 27.205 32.6474 27.1743 32.6306C26.4054 32.2087 25.3608 30.7623 24.7496 26.2679C24.7184 26.0358 24.5749 25.836 24.3668 25.7322L24.3667 25.7322ZM25.6831 34.5085C26.3868 36.0621 28.1892 37.9304 31.1278 40.1625L29.5999 42.0509C29.3762 42.292 29.0358 42.5303 28.6418 42.806C28.2233 43.0989 27.7674 43.4176 27.3315 43.8188C25.0848 39.8595 24.5151 36.5788 25.6831 34.5085H25.6831ZM18.8538 38.3545C18.8767 38.792 18.8806 39.3618 18.8237 39.9997C15.9917 40.5075 12.7305 42.6437 8.88953 46.5058C8.65348 46.2714 8.35214 45.9896 8.01676 45.7206C10.3209 42.8445 13.6953 40.5611 18.8538 38.3546L18.8538 38.3545ZM4.2738 53.6617C4.49255 53.6438 4.96689 53.7097 5.89152 54.2158C5.07846 54.8274 5.08962 55.473 5.18783 55.8352C5.19788 57.8665 4.7693 58.6595 4.4049 58.9675C4.1337 59.1963 3.75926 59.2621 3.25702 59.1701C3.23079 59.1651 3.20456 59.1617 3.17945 59.16C3.48917 57.1427 3.83794 55.3213 4.27377 53.6617L4.2738 53.6617ZM2.06237 68.0931C2.3732 65.3141 2.65836 62.8141 2.97476 60.5485C2.98369 60.5508 2.99373 60.5524 3.00266 60.5541C3.93068 60.7249 4.70695 60.5519 5.31009 60.0429C6.19849 59.2935 6.61756 57.8772 6.59191 55.7137C6.59135 55.6417 6.57907 55.5708 6.55675 55.5033C6.58967 55.4597 6.67338 55.371 6.87372 55.246C6.94794 55.2002 7.01267 55.1405 7.06456 55.0702L7.52439 54.4569C7.64214 54.3001 7.68901 54.102 7.65442 53.9084C7.61926 53.7159 7.50486 53.5457 7.34024 53.4413C6.56624 52.9491 5.57624 52.3922 4.66953 52.2722C4.81964 51.7884 4.98036 51.3186 5.15112 50.8632C5.76997 50.9441 6.74883 51.2951 8.25383 52.3169C8.57526 52.5357 9.0122 52.4514 9.23094 52.13C9.44913 51.8085 9.36543 51.3716 9.044 51.1529C7.74824 50.2728 6.64386 49.7366 5.69971 49.5317C6.12884 48.5825 6.6188 47.6924 7.18243 46.8543C7.82974 47.3839 8.3398 47.9709 8.34649 47.9782C8.47539 48.1277 8.66177 48.2159 8.8582 48.2215C9.05797 48.2248 9.24603 48.1495 9.38387 48.0077C13.414 43.8509 16.828 41.5999 19.5317 41.318C19.8532 41.2845 20.1104 41.0362 20.1556 40.7153C20.3286 39.4787 20.2806 38.4068 20.2226 37.7862C21.3102 37.3493 22.4709 36.9145 23.7092 36.4759C23.5579 38.9118 24.5289 41.9558 26.602 45.3542C26.722 45.5512 26.9318 45.6768 27.1623 45.6907C27.1762 45.6913 27.1891 45.6913 27.203 45.6913C27.4184 45.6913 27.6232 45.5919 27.7571 45.4212C28.1913 44.8654 28.7287 44.4636 29.2627 44.088L27.4301 62.248C27.4106 62.4383 27.4703 62.6292 27.5942 62.7748L31.4776 67.3334C31.6116 67.4902 31.8074 67.5806 32.0133 67.5806H32.0239C32.2338 67.5773 32.4313 67.4813 32.5619 67.3178L36.3453 62.6035C36.4603 62.4606 36.5144 62.2787 36.4971 62.0957L34.7533 44.0543C35.3442 44.4516 35.9982 44.9014 36.4341 45.4599C36.568 45.6313 36.7728 45.73 36.9882 45.73C37.0022 45.73 37.015 45.7295 37.029 45.7295C37.2594 45.7166 37.4687 45.5905 37.5892 45.393C39.6461 42.0208 40.6171 38.9978 40.485 36.5715C41.6228 36.9772 42.6954 37.3813 43.7037 37.7864C43.6451 38.4069 43.5976 39.479 43.7706 40.7155C43.8153 41.0353 44.0725 41.2847 44.3945 41.3182C47.0982 41.6006 50.5122 43.8511 54.5424 48.0079C54.6797 48.1491 54.87 48.2284 55.0675 48.2211C55.265 48.2155 55.4503 48.1273 55.5792 47.9778C55.5859 47.9705 56.096 47.3835 56.7438 46.8539C57.2779 47.6474 57.7444 48.4868 58.1568 49.3796C57.1897 49.5666 56.0508 50.1095 54.7065 51.0231C54.3851 51.2412 54.3014 51.6787 54.5195 52.0002C54.7377 52.3216 55.1752 52.4053 55.4967 52.1871C57.1038 51.0956 58.1117 50.7697 58.7204 50.72C58.895 51.1753 59.0574 51.6441 59.2109 52.1279C58.2695 52.2088 57.2209 52.7959 56.4102 53.3115C56.2455 53.417 56.1312 53.5861 56.096 53.7786C56.0608 53.9711 56.1072 54.1698 56.2249 54.3271L56.6847 54.9404C56.7372 55.0096 56.8014 55.0693 56.8756 55.1162C57.0753 55.2401 57.1596 55.3299 57.1925 55.3734C57.1708 55.441 57.1585 55.5124 57.1574 55.5838C57.1312 57.7474 57.5508 59.1637 58.4392 59.9131C59.0424 60.4226 59.8198 60.5939 60.7466 60.4243C60.8097 60.4131 60.8688 60.393 60.9246 60.3662C61.2522 62.6788 61.5435 65.2395 61.8633 68.0928H2.06183L2.06237 68.0931ZM50.2524 54.3671H38.7518C38.3634 54.3671 38.0481 54.6824 38.0481 55.0708V57.6773C38.0481 58.0657 38.3634 58.381 38.7518 58.381H50.2524C50.6408 58.381 50.9561 58.0657 50.9561 57.6773V55.0708C50.9549 54.6824 50.6408 54.3671 50.2524 54.3671ZM49.5487 56.9737H39.4556V55.7739H49.5487V56.9737ZM50.9549 61.5111V65.9575C50.9549 66.3459 50.6397 66.6612 50.2513 66.6612H38.7518C38.3634 66.6612 38.0481 66.3459 38.0481 65.9575V61.5111C38.0481 61.1227 38.3634 60.8074 38.7518 60.8074C39.1402 60.8074 39.4555 61.1227 39.4555 61.5111V65.2549H49.5487V61.5111C49.5487 61.1227 49.8639 60.8074 50.2523 60.8074C50.6407 60.8074 50.9549 61.1227 50.9549 61.5111H50.9549ZM45.6268 63.3124C45.6268 62.6918 45.1223 62.1874 44.5018 62.1874C43.8813 62.1874 43.3768 62.6918 43.3768 63.3124C43.3768 63.9329 43.8813 64.4374 44.5018 64.4374C45.1223 64.4374 45.6268 63.9329 45.6268 63.3124ZM44.2205 63.3124C44.2205 63.1572 44.3472 63.0306 44.5024 63.0306C44.6575 63.0306 44.7842 63.1572 44.7842 63.3124C44.7842 63.4675 44.6575 63.5942 44.5024 63.5942C44.3472 63.5942 44.2205 63.4675 44.2205 63.3124ZM25.6548 61.5111V65.9575C25.6548 66.3459 25.3395 66.6612 24.9511 66.6612H13.4511C13.0627 66.6612 12.7475 66.3459 12.7475 65.9575V61.5111C12.7475 61.1227 13.0627 60.8074 13.4511 60.8074C13.8395 60.8074 14.1548 61.1227 14.1548 61.5111V65.2549H24.248V61.5111C24.248 61.1227 24.5633 60.8074 24.9517 60.8074C25.3395 60.8074 25.6548 61.1227 25.6548 61.5111H25.6548ZM19.2017 64.4374C19.8222 64.4374 20.3267 63.9329 20.3267 63.3124C20.3267 62.6918 19.8222 62.1874 19.2017 62.1874C18.5811 62.1874 18.0767 62.6918 18.0767 63.3124C18.0767 63.9329 18.5811 64.4374 19.2017 64.4374ZM19.2017 63.0311C19.3568 63.0311 19.4835 63.1578 19.4835 63.3129C19.4835 63.4681 19.3568 63.5947 19.2017 63.5947C19.0466 63.5947 18.9199 63.4681 18.9199 63.3129C18.9193 63.1567 19.0454 63.0311 19.2017 63.0311Z" fill="white"/>
</svg>
