<svg width="81" height="80" viewBox="0 0 81 80" fill="none" xmlns="http://www.w3.org/2000/svg">
<path d="M2.70374 80H77.298C78.139 80.0033 78.9336 79.6138 79.4459 78.9464C79.9509 78.2985 80.1245 77.4514 79.9141 76.6574C79.2109 74.0403 77.2394 71.952 74.6674 71.1V35.49C75.5223 34.5279 75.996 33.2869 76.0005 31.9994C76.0005 30.0937 74.9838 28.3331 73.3336 27.3806C71.6835 26.428 69.6506 26.428 68.0005 27.3806C66.3504 28.3331 65.3336 30.0937 65.3336 31.9994C65.3381 33.2868 65.8124 34.5279 66.6673 35.49V45.466C61.6808 49.7327 53.0926 54.6663 40.0002 54.6663C26.9338 54.6663 18.3288 49.717 13.3331 45.4397V35.49C14.188 34.5279 14.6623 33.2869 14.6668 31.9994C14.6668 30.0937 13.65 28.3331 11.9999 27.3806C10.3498 26.428 8.3169 26.428 6.66676 27.3806C5.01661 28.3331 3.9999 30.0937 3.9999 31.9994C4.00436 33.2868 4.47814 34.5279 5.33304 35.49V71.1029C4.1634 71.4929 3.09647 72.1408 2.2109 72.999C1.18858 74.0102 0.455326 75.2763 0.0864692 76.6659C-0.121117 77.4572 0.0518703 78.3003 0.554655 78.9454C1.06693 79.6128 1.86157 80.0023 2.70251 79.999L2.70374 80ZM77.3337 77.3147C77.3254 77.3275 77.3109 77.3348 77.2952 77.3331H64.0007C64.2468 76.4129 64.7334 75.5747 65.4114 74.9051C66.4544 73.8929 67.8522 73.3287 69.306 73.3331H72.0287C73.2273 73.3236 74.3958 73.7081 75.354 74.4274C76.3127 75.1468 77.0085 76.1613 77.3338 77.3147L77.3337 77.3147ZM70.6675 37.3333C71.1178 37.3277 71.5659 37.2641 72.0006 37.1441V39.6123C71.206 40.788 70.3136 41.8947 69.3337 42.9214V37.1441C69.7685 37.2641 70.2166 37.3277 70.6674 37.3333H70.6675ZM72.0006 44.0001V70.6673H69.3337V46.7287C70.2718 45.8688 71.1625 44.958 72.0006 44.0004V44.0001ZM70.6675 29.333C71.3745 29.333 72.0531 29.6143 72.553 30.1143C73.053 30.6143 73.3337 31.2928 73.3337 31.9998C73.3337 32.7068 73.053 33.3854 72.553 33.8854C72.053 34.3854 71.3745 34.6667 70.6675 34.6667C69.9599 34.6667 69.2819 34.3854 68.7819 33.8854C68.2813 33.3854 68.0006 32.7068 68.0006 31.9998C68.0006 31.2928 68.2813 30.6142 68.7819 30.1143C69.2819 29.6143 69.9599 29.333 70.6675 29.333ZM40.0003 57.333C52.5416 57.333 61.1717 53.1399 66.6675 48.9569V71.104C65.4978 71.4941 64.4315 72.1414 63.5457 72.9991C62.5217 74.0092 61.7879 75.276 61.4207 76.6671C61.3649 76.887 61.3382 77.1136 61.3404 77.3401H18.6675C18.6698 77.1124 18.643 76.8853 18.5872 76.6643C17.8852 74.0432 15.9103 71.9518 13.3339 71.1002V48.9573C18.83 53.1398 27.4595 57.3329 40.001 57.3329L40.0003 57.333ZM9.33317 37.333C9.78406 37.3274 10.2322 37.2638 10.6669 37.1438V42.9038C9.68863 41.8809 8.79687 40.7788 8.00001 39.6093V37.1438C8.43473 37.2638 8.88283 37.3274 9.33316 37.333H9.33317ZM10.6663 46.7276L10.6669 70.6661H8.00001V43.999C8.83819 44.9566 9.72887 45.8673 10.6669 46.7273L10.6663 46.7276ZM9.33317 29.3333C10.0408 29.3333 10.7188 29.6145 11.2187 30.1145C11.7193 30.6145 12 31.2931 12 32.0001C12 32.7071 11.7193 33.3857 11.2187 33.8857C10.7187 34.3857 10.0407 34.6669 9.33317 34.6669C8.62614 34.6669 7.94757 34.3857 7.4476 33.8857C6.94763 33.3857 6.66691 32.7071 6.66691 32.0001C6.66691 31.2931 6.9476 30.6145 7.4476 30.1145C7.9476 29.6146 8.62617 29.3333 9.33317 29.3333ZM4.0776 74.9047C5.12057 73.8924 6.51846 73.3283 7.97217 73.3327H10.6949C11.893 73.3232 13.0615 73.7077 14.0202 74.427C14.9789 75.1463 15.6747 76.1609 16 77.3143C16 77.3143 15.9894 77.3327 15.9615 77.3327H2.66695C2.91361 76.4131 3.40076 75.5749 4.07766 74.9047L4.0776 74.9047Z" fill="white"/>
<path d="M46.6681 41.3329C47.9549 41.329 49.1965 40.8546 50.1587 39.9997H58.6681C59.3751 39.9997 60.0537 39.7191 60.5537 39.2185C61.0537 38.7185 61.3343 38.0405 61.3343 37.3329V34.6666C61.3343 33.959 61.0537 33.281 60.5537 32.781C60.0537 32.2805 59.3751 31.9998 58.6681 31.9998H50.1587C49.8344 31.7146 49.4762 31.4708 49.0917 31.2732L46.4371 24.6321L55.2468 21.7331C56.2535 21.4 57.0867 20.6812 57.565 19.7348C58.0432 18.7878 58.1264 17.6907 57.7971 16.6824L56.5477 12.8821L53.2145 2.74866V2.74922C52.8831 1.74196 52.1649 0.907649 51.2184 0.429507C50.272 -0.0487363 49.1742 -0.131322 48.1665 0.199592L16.5022 10.6103C15.6233 10.8977 14.9554 11.6198 14.7377 12.5187C14.5206 13.4177 14.7845 14.3653 15.4358 15.0226L19.2008 18.8066L19.4223 19.4734L16.8889 20.3055V20.3049C16.217 20.5259 15.6601 21.0052 15.3409 21.6369C15.0222 22.2686 14.9676 23.0008 15.1891 23.6732L16.4369 27.4718C16.6579 28.1442 17.1366 28.7012 17.7683 29.0204C18.4 29.3396 19.1327 29.3943 19.8052 29.1733L22.3386 28.3412C22.6695 29.3491 23.3877 30.1838 24.3348 30.6621C25.2818 31.1403 26.3799 31.2229 27.3878 30.8915L38.8225 27.1326L41.6612 34.2448V34.2453C41.4531 34.8073 41.3426 35.4004 41.3342 35.9997C41.3342 37.4143 41.8961 38.7709 42.8968 39.7709C43.8968 40.7709 45.2533 41.3329 46.6679 41.3329L46.6681 41.3329ZM44.0012 35.9997C44.0012 35.2927 44.2819 34.6141 44.7825 34.1142C45.2825 33.6142 45.9605 33.3329 46.6681 33.3329C47.0012 33.334 47.3316 33.3988 47.6413 33.5238L47.6664 33.5316C48.2679 33.7749 48.7601 34.2285 49.0509 34.8078C49.3422 35.3876 49.4119 36.0533 49.2473 36.6805C49.0827 37.3083 48.6954 37.8541 48.1575 38.2162C47.6195 38.5784 46.9677 38.7324 46.3243 38.6487C45.6815 38.5655 45.0905 38.2503 44.663 37.7625C44.2356 37.2748 44.0001 36.6481 44.0012 35.9997L44.0012 35.9997ZM58.6684 37.3329H51.8124C52.0646 36.4623 52.0646 35.5372 51.8124 34.6666H58.6684V37.3329ZM49.0004 2.73431C49.6996 2.50439 50.4524 2.88442 50.6828 3.58363L53.6014 12.4502L25.7342 21.6115L21.3677 17.2113L17.3342 13.1432L49.0004 2.73431ZM18.9647 26.6429L17.7152 22.8443L20.2486 22.0123L21.4981 25.8108L18.9647 26.6429ZM26.5472 28.3616H26.5478C26.2118 28.4721 25.8452 28.4447 25.5294 28.2857C25.2135 28.1261 24.9741 27.8482 24.8636 27.5123L23.3971 23.0418L23.8424 23.4899V23.4894C24.3401 23.995 25.0204 24.2801 25.7302 24.2801C26.0148 24.2801 26.2983 24.2355 26.569 24.1467L54.4361 14.9855L55.2681 17.5189V17.5183C55.3786 17.8543 55.3518 18.2209 55.1922 18.5367C55.0332 18.8526 54.7547 19.092 54.4188 19.2025L26.5472 28.3616ZM43.8929 25.4664L46.0012 30.7349C45.1028 30.8448 44.2479 31.1841 43.5185 31.7198L41.3545 26.3024L43.8929 25.4664Z" fill="white"/>
<path d="M24.7324 16.2557C24.8736 16.2557 25.0137 16.234 25.1481 16.1904L48.1339 8.634C48.8336 8.40408 49.2142 7.65018 48.9837 6.951C48.7538 6.25123 47.9999 5.87064 47.3007 6.10111L24.315 13.6558C23.6923 13.8601 23.3111 14.4867 23.4149 15.1335C23.5187 15.7803 24.0773 16.2563 24.7324 16.2558L24.7324 16.2557Z" fill="white"/>
</svg>
